<svg viewBox="0 0 700 480" xmlns="http://www.w3.org/2000/svg" font-family="Georgia, 'Times New Roman', serif">
<defs>
  <marker id="arrow" markerWidth="8" markerHeight="6" refX="7" refY="3" orient="auto">
    <polygon points="0 0, 8 3, 0 6" fill="#1a1714"/>
  </marker>
  <marker id="arrowL" markerWidth="8" markerHeight="6" refX="1" refY="3" orient="auto">
    <polygon points="8 0, 0 3, 8 6" fill="#1a1714"/>
  </marker>
</defs>
<rect x="0" y="0" width="700" height="480" fill="#fdfcfb"/>
<text x="350.0" y="38" font-size="13" font-weight="bold" fill="#1a1714" text-anchor="middle">Cairo&apos;s four-step framework</text>
<rect x="32.0" y="90" width="130" height="60" fill="#f5f2ee" stroke="#1a1714" stroke-width="1"/>
<text x="97.0" y="112" font-size="11" font-weight="bold" fill="#1a1714" text-anchor="middle">1. Key Message</text>
<text x="97.0" y="132" font-size="10" fill="#4a4540" text-anchor="middle" font-style="italic">single sentence</text>
<rect x="200.66666666666666" y="90" width="130" height="60" fill="#f5f2ee" stroke="#1a1714" stroke-width="1"/>
<text x="265.66666666666663" y="112" font-size="11" font-weight="bold" fill="#1a1714" text-anchor="middle">2. Data Structure</text>
<text x="265.66666666666663" y="132" font-size="10" fill="#4a4540" text-anchor="middle" font-style="italic">attribute types &amp; counts</text>
<rect x="369.3333333333333" y="90" width="130" height="60" fill="#f5f2ee" stroke="#1a1714" stroke-width="1"/>
<text x="434.3333333333333" y="112" font-size="11" font-weight="bold" fill="#1a1714" text-anchor="middle">3. Functional Category</text>
<text x="434.3333333333333" y="132" font-size="10" fill="#4a4540" text-anchor="middle" font-style="italic">FT Visual Vocabulary</text>
<rect x="538.0" y="90" width="130" height="60" fill="#f5f2ee" stroke="#1a1714" stroke-width="1"/>
<text x="603.0" y="112" font-size="11" font-weight="bold" fill="#1a1714" text-anchor="middle">4. Specific Form</text>
<text x="603.0" y="132" font-size="10" fill="#4a4540" text-anchor="middle" font-style="italic">chart type named</text>
<line x1="164.0" y1="120.0" x2="194.66666666666666" y2="120.0" stroke="#1a1714" stroke-width="1.5" marker-end="url(#arrow)"/>
<line x1="332.66666666666663" y1="120.0" x2="363.3333333333333" y2="120.0" stroke="#1a1714" stroke-width="1.5" marker-end="url(#arrow)"/>
<line x1="501.3333333333333" y1="120.0" x2="532.0" y2="120.0" stroke="#1a1714" stroke-width="1.5" marker-end="url(#arrow)"/>
<rect x="215.33333333333331" y="210" width="105" height="32" fill="#fdfcfb" stroke="#8a8480" stroke-width="0.75"/>
<text x="267.8333333333333" y="230" font-size="10" fill="#4a4540" text-anchor="middle">Comparison</text>
<line x1="434.3333333333333" y1="150" x2="267.8333333333333" y2="210" stroke="#8a8480" stroke-width="0.75" stroke-dasharray="3 2"/>
<rect x="326.3333333333333" y="210" width="105" height="32" fill="#fdfcfb" stroke="#8a8480" stroke-width="0.75"/>
<text x="378.8333333333333" y="230" font-size="10" fill="#4a4540" text-anchor="middle">Change</text>
<line x1="434.3333333333333" y1="150" x2="378.8333333333333" y2="210" stroke="#8a8480" stroke-width="0.75" stroke-dasharray="3 2"/>
<rect x="437.3333333333333" y="210" width="105" height="32" fill="#fdfcfb" stroke="#8a8480" stroke-width="0.75"/>
<text x="489.8333333333333" y="230" font-size="10" fill="#4a4540" text-anchor="middle">Distribution</text>
<line x1="434.3333333333333" y1="150" x2="489.8333333333333" y2="210" stroke="#8a8480" stroke-width="0.75" stroke-dasharray="3 2"/>
<rect x="548.3333333333333" y="210" width="105" height="32" fill="#fdfcfb" stroke="#8a8480" stroke-width="0.75"/>
<text x="600.8333333333333" y="230" font-size="10" fill="#4a4540" text-anchor="middle">Part-to-whole</text>
<line x1="434.3333333333333" y1="150" x2="600.8333333333333" y2="210" stroke="#8a8480" stroke-width="0.75" stroke-dasharray="3 2"/>
<line x1="267.8333333333333" y1="242" x2="603.0" y2="162" stroke="#8a8480" stroke-width="0.75" stroke-dasharray="3 2"/>
<line x1="378.8333333333333" y1="242" x2="603.0" y2="162" stroke="#8a8480" stroke-width="0.75" stroke-dasharray="3 2"/>
<line x1="489.8333333333333" y1="242" x2="603.0" y2="162" stroke="#8a8480" stroke-width="0.75" stroke-dasharray="3 2"/>
<line x1="600.8333333333333" y1="242" x2="603.0" y2="162" stroke="#8a8480" stroke-width="0.75" stroke-dasharray="3 2"/>
<rect x="60" y="300" width="580" height="100" fill="#f5f2ee" stroke="#1a1714" stroke-width="1"/>
<text x="74" y="322" font-size="11" font-weight="bold" fill="#1a1714">Worked path — humanitarian funding case:</text>
<text x="74" y="342" font-size="11" fill="#1a1714"><tspan font-weight="bold">Step 1.</tspan> Key message: "Three sectors absorbed 45% of all funding."</text>
<text x="74" y="358" font-size="11" fill="#1a1714"><tspan font-weight="bold">Step 2.</tspan> 14 categorical sectors × one quantitative measure (USD millions).</text>
<text x="74" y="374" font-size="11" fill="#1a1714"><tspan font-weight="bold">Step 3.</tspan> Functional category: <tspan font-weight="bold">Comparison</tspan> (ranking the top three).</text>
<text x="74" y="390" font-size="11" fill="#1a1714"><tspan font-weight="bold">Step 4.</tspan> Specific form: <tspan font-weight="bold">horizontal bar chart, sorted descending.</tspan></text>
</svg>