<svg viewBox="0 0 700 480" xmlns="http://www.w3.org/2000/svg" font-family="Georgia, 'Times New Roman', serif">
<defs>
  <marker id="arrow" markerWidth="8" markerHeight="6" refX="7" refY="3" orient="auto">
    <polygon points="0 0, 8 3, 0 6" fill="#1a1714"/>
  </marker>
  <marker id="arrowL" markerWidth="8" markerHeight="6" refX="1" refY="3" orient="auto">
    <polygon points="8 0, 0 3, 8 6" fill="#1a1714"/>
  </marker>
</defs>
<rect x="0" y="0" width="700" height="480" fill="#fdfcfb"/>
<text x="350.0" y="36" font-size="13" font-weight="bold" fill="#1a1714" text-anchor="middle">One dataset, three questions, three charts</text>
<rect x="25" y="80" width="200" height="250" fill="#fdfcfb" stroke="#8a8480" stroke-width="0.75"/>
<text x="125.0" y="70" font-size="11" font-weight="bold" fill="#1a1714" text-anchor="middle">Change over time</text>
<path d="M 50.0,228.1 L 63.6,210.5 L 77.3,190.3 L 90.9,163.1 L 104.5,145.6 L 118.2,119.3 L 131.8,135.9 L 145.5,131.6 L 159.1,104.3 L 172.7,91.1 L 186.4,65.9 L 200.0,78.5" stroke="#1a1714" stroke-width="1.5" fill="none"/>
<circle cx="50.0" cy="228.1" r="2" fill="#1a1714"/>
<circle cx="63.6" cy="210.5" r="2" fill="#1a1714"/>
<circle cx="77.3" cy="190.3" r="2" fill="#1a1714"/>
<circle cx="90.9" cy="163.1" r="2" fill="#1a1714"/>
<circle cx="104.5" cy="145.6" r="2" fill="#1a1714"/>
<circle cx="118.2" cy="119.3" r="2" fill="#1a1714"/>
<circle cx="131.8" cy="135.9" r="2" fill="#1a1714"/>
<circle cx="145.5" cy="131.6" r="2" fill="#1a1714"/>
<circle cx="159.1" cy="104.3" r="2" fill="#1a1714"/>
<circle cx="172.7" cy="91.1" r="2" fill="#1a1714"/>
<circle cx="186.4" cy="65.9" r="2" fill="#1a1714"/>
<circle cx="200.0" cy="78.5" r="2" fill="#1a1714"/>
<line x1="45" y1="304" x2="205" y2="304" stroke="#8a8480" stroke-width="0.75"/>
<text x="50.0" y="318" font-size="8" fill="#4a4540" text-anchor="middle">J</text>
<text x="63.6" y="318" font-size="8" fill="#4a4540" text-anchor="middle">F</text>
<text x="77.3" y="318" font-size="8" fill="#4a4540" text-anchor="middle">M</text>
<text x="90.9" y="318" font-size="8" fill="#4a4540" text-anchor="middle">A</text>
<text x="104.5" y="318" font-size="8" fill="#4a4540" text-anchor="middle">M</text>
<text x="118.2" y="318" font-size="8" fill="#4a4540" text-anchor="middle">J</text>
<text x="131.8" y="318" font-size="8" fill="#4a4540" text-anchor="middle">J</text>
<text x="145.5" y="318" font-size="8" fill="#4a4540" text-anchor="middle">A</text>
<text x="159.1" y="318" font-size="8" fill="#4a4540" text-anchor="middle">S</text>
<text x="172.7" y="318" font-size="8" fill="#4a4540" text-anchor="middle">O</text>
<text x="186.4" y="318" font-size="8" fill="#4a4540" text-anchor="middle">N</text>
<text x="200.0" y="318" font-size="8" fill="#4a4540" text-anchor="middle">D</text>
<text x="125.0" y="327" font-size="10" fill="#4a4540" text-anchor="middle" font-style="italic">monthly totals</text>
<rect x="250" y="80" width="200" height="250" fill="#fdfcfb" stroke="#8a8480" stroke-width="0.75"/>
<text x="350.0" y="70" font-size="11" font-weight="bold" fill="#1a1714" text-anchor="middle">Comparison</text>
<text x="315" y="113.5" font-size="9" fill="#1a1714" text-anchor="end">Food</text>
<rect x="320" y="100" width="110.0" height="18" fill="#1a1714"/>
<text x="315" y="138.5" font-size="9" fill="#1a1714" text-anchor="end">Shelter</text>
<rect x="320" y="125" width="83.6" height="18" fill="#1a1714"/>
<text x="315" y="163.5" font-size="9" fill="#1a1714" text-anchor="end">Health</text>
<rect x="320" y="150" width="74.8" height="18" fill="#1a1714"/>
<text x="315" y="188.5" font-size="9" fill="#1a1714" text-anchor="end">Protection</text>
<rect x="320" y="175" width="60.5" height="18" fill="#1a1714"/>
<text x="315" y="213.5" font-size="9" fill="#1a1714" text-anchor="end">WASH</text>
<rect x="320" y="200" width="46.2" height="18" fill="#1a1714"/>
<text x="315" y="238.5" font-size="9" fill="#1a1714" text-anchor="end">Educ.</text>
<rect x="320" y="225" width="34.1" height="18" fill="#1a1714"/>
<text x="315" y="263.5" font-size="9" fill="#1a1714" text-anchor="end">Logist.</text>
<rect x="320" y="250" width="27.5" height="18" fill="#1a1714"/>
<text x="315" y="288.5" font-size="9" fill="#1a1714" text-anchor="end">Nutrit.</text>
<rect x="320" y="275" width="20.9" height="18" fill="#1a1714"/>
<line x1="320" y1="98" x2="320" y2="295" stroke="#1a1714" stroke-width="1"/>
<text x="350.0" y="327" font-size="10" fill="#4a4540" text-anchor="middle" font-style="italic">cumulative by sector</text>
<rect x="475" y="80" width="200" height="250" fill="#fdfcfb" stroke="#8a8480" stroke-width="0.75"/>
<text x="575.0" y="70" font-size="11" font-weight="bold" fill="#1a1714" text-anchor="middle">Part-to-whole</text>
<rect x="490.0" y="100.0" width="24" height="57.0" fill="#1a1714"/>
<rect x="490.0" y="157.0" width="24" height="47.5" fill="#4a4540"/>
<rect x="490.0" y="204.5" width="24" height="41.8" fill="#6e6862"/>
<rect x="490.0" y="246.3" width="24" height="24.7" fill="#969089"/>
<rect x="490.0" y="271.0" width="24" height="19.0" fill="#c8c4c0"/>
<text x="502.0" y="304" font-size="9" fill="#4a4540" text-anchor="middle">'21</text>
<rect x="526.5" y="100.0" width="24" height="60.8" fill="#1a1714"/>
<rect x="526.5" y="160.8" width="24" height="41.8" fill="#4a4540"/>
<rect x="526.5" y="202.6" width="24" height="45.6" fill="#6e6862"/>
<rect x="526.5" y="248.2" width="24" height="24.7" fill="#969089"/>
<rect x="526.5" y="272.9" width="24" height="17.1" fill="#c8c4c0"/>
<text x="538.5" y="304" font-size="9" fill="#4a4540" text-anchor="middle">'22</text>
<rect x="563.0" y="100.0" width="24" height="53.2" fill="#1a1714"/>
<rect x="563.0" y="153.2" width="24" height="49.4" fill="#4a4540"/>
<rect x="563.0" y="202.6" width="24" height="39.9" fill="#6e6862"/>
<rect x="563.0" y="242.5" width="24" height="28.5" fill="#969089"/>
<rect x="563.0" y="271.0" width="24" height="19.0" fill="#c8c4c0"/>
<text x="575.0" y="304" font-size="9" fill="#4a4540" text-anchor="middle">'23</text>
<rect x="599.5" y="100.0" width="24" height="64.6" fill="#1a1714"/>
<rect x="599.5" y="164.6" width="24" height="38.0" fill="#4a4540"/>
<rect x="599.5" y="202.6" width="24" height="38.0" fill="#6e6862"/>
<rect x="599.5" y="240.6" width="24" height="30.4" fill="#969089"/>
<rect x="599.5" y="271.0" width="24" height="19.0" fill="#c8c4c0"/>
<text x="611.5" y="304" font-size="9" fill="#4a4540" text-anchor="middle">'24</text>
<rect x="636.0" y="100.0" width="24" height="57.0" fill="#1a1714"/>
<rect x="636.0" y="157.0" width="24" height="41.8" fill="#4a4540"/>
<rect x="636.0" y="198.8" width="24" height="39.9" fill="#6e6862"/>
<rect x="636.0" y="238.7" width="24" height="32.3" fill="#969089"/>
<rect x="636.0" y="271.0" width="24" height="19.0" fill="#c8c4c0"/>
<text x="648.0" y="304" font-size="9" fill="#4a4540" text-anchor="middle">'25</text>
<text x="575.0" y="327" font-size="10" fill="#4a4540" text-anchor="middle" font-style="italic">sector share by year</text>
<text x="350.0" y="360" font-size="11" fill="#1a1714" text-anchor="middle"><tspan font-weight="bold">None of the three is the "right chart for this data."</tspan></text>
<text x="350.0" y="378" font-size="10" fill="#4a4540" text-anchor="middle" font-style="italic">All three are right for their respective questions. The chart follows the message — not the dataset.</text>
</svg>