<svg viewBox="0 0 700 420" xmlns="http://www.w3.org/2000/svg" font-family="'EB Garamond', Georgia, 'Times New Roman', serif">
<defs>
  <marker id="arrow" markerWidth="8" markerHeight="6" refX="7" refY="3" orient="auto">
    <polygon points="0 0, 8 3, 0 6" fill="#2a1a0e"/>
  </marker>
</defs>

<!-- Background -->
<rect width="700" height="420" fill="#FFFFFF"/>

<!-- Title -->
<text x="350" y="26" text-anchor="middle" font-size="14" fill="#2a1a0e" font-weight="bold">Stacked vs. Grouped vs. Small Multiples: 5 Countries x 4 Sectors</text>

<!-- Legend -->
<rect x="180" y="34" width="12" height="10" fill="#2a1a0e" rx="0"/>
<text x="196" y="43" font-size="9" fill="#2a1a0e">Agriculture</text>
<rect x="270" y="34" width="12" height="10" fill="#6B3520" rx="0"/>
<text x="286" y="43" font-size="9" fill="#2a1a0e">Industry</text>
<rect x="348" y="34" width="12" height="10" fill="#C8102E" rx="0"/>
<text x="364" y="43" font-size="9" fill="#2a1a0e">Services</text>
<rect x="426" y="34" width="12" height="10" fill="#C8860E" rx="0"/>
<text x="442" y="43" font-size="9" fill="#2a1a0e">Tech</text>

<!-- PANEL 1: Stacked Bars -->
<rect x="32" y="56" width="200" height="310" fill="#F5EFE8" stroke="#D4D4D4" rx="0"/>

<!-- Y-axis -->
<line x1="62" y1="72" x2="62" y2="320" stroke="#2a1a0e" stroke-width="1"/>
<text x="56" y="78" font-size="7" fill="#545454" text-anchor="end">100</text>
<line x1="62" y1="74" x2="222" y2="74" stroke="#D4D4D4" stroke-dasharray="4 3"/>
<text x="56" y="140" font-size="7" fill="#545454" text-anchor="end">75</text>
<line x1="62" y1="136" x2="222" y2="136" stroke="#D4D4D4" stroke-dasharray="4 3"/>
<text x="56" y="200" font-size="7" fill="#545454" text-anchor="end">50</text>
<line x1="62" y1="197" x2="222" y2="197" stroke="#D4D4D4" stroke-dasharray="4 3"/>
<text x="56" y="262" font-size="7" fill="#545454" text-anchor="end">25</text>
<line x1="62" y1="259" x2="222" y2="259" stroke="#D4D4D4" stroke-dasharray="4 3"/>
<line x1="62" y1="320" x2="222" y2="320" stroke="#2a1a0e" stroke-width="1"/>

<!-- Stacked bars for 5 countries, each 246px tall total, bar width=26, gap=6 -->
<!-- Country A: Agri=20, Ind=25, Serv=35, Tech=20 => Total=100 -->
<!-- Each unit = 2.46px -->
<!-- Bottom to top: Agri, Ind, Serv, Tech -->
<rect x="68" y="270.8" width="26" height="49.2" fill="#2a1a0e" rx="0"/>
<rect x="68" y="209.3" width="26" height="61.5" fill="#6B3520" rx="0"/>
<rect x="68" y="123.2" width="26" height="86.1" fill="#C8102E" rx="0"/>
<rect x="68" y="74" width="26" height="49.2" fill="#C8860E" rx="0"/>

<!-- Country B: 15, 30, 30, 25 -->
<rect x="100" y="283.1" width="26" height="36.9" fill="#2a1a0e" rx="0"/>
<rect x="100" y="209.3" width="26" height="73.8" fill="#6B3520" rx="0"/>
<rect x="100" y="135.5" width="26" height="73.8" fill="#C8102E" rx="0"/>
<rect x="100" y="74" width="26" height="61.5" fill="#C8860E" rx="0"/>

<!-- Country C: 25, 20, 40, 15 -->
<rect x="132" y="258.5" width="26" height="61.5" fill="#2a1a0e" rx="0"/>
<rect x="132" y="209.3" width="26" height="49.2" fill="#6B3520" rx="0"/>
<rect x="132" y="110.9" width="26" height="98.4" fill="#C8102E" rx="0"/>
<rect x="132" y="74" width="26" height="36.9" fill="#C8860E" rx="0"/>

<!-- Country D: 10, 35, 25, 30 -->
<rect x="164" y="295.4" width="26" height="24.6" fill="#2a1a0e" rx="0"/>
<rect x="164" y="209.3" width="26" height="86.1" fill="#6B3520" rx="0"/>
<rect x="164" y="147.8" width="26" height="61.5" fill="#C8102E" rx="0"/>
<rect x="164" y="74" width="26" height="73.8" fill="#C8860E" rx="0"/>

<!-- Country E: 30, 15, 20, 35 -->
<rect x="196" y="246.2" width="26" height="73.8" fill="#2a1a0e" rx="0"/>
<rect x="196" y="209.3" width="26" height="36.9" fill="#6B3520" rx="0"/>
<rect x="196" y="160.1" width="26" height="49.2" fill="#C8102E" rx="0"/>
<rect x="196" y="74" width="26" height="86.1" fill="#C8860E" rx="0"/>

<!-- Country labels -->
<text x="81" y="334" text-anchor="middle" font-size="8" fill="#545454">A</text>
<text x="113" y="334" text-anchor="middle" font-size="8" fill="#545454">B</text>
<text x="145" y="334" text-anchor="middle" font-size="8" fill="#545454">C</text>
<text x="177" y="334" text-anchor="middle" font-size="8" fill="#545454">D</text>
<text x="209" y="334" text-anchor="middle" font-size="8" fill="#545454">E</text>

<text x="132" y="354" text-anchor="middle" font-family="'IBM Plex Mono', 'Courier New', monospace" font-size="8" fill="#545454" letter-spacing="0.08em">WHAT IS THE TOTAL?</text>

<!-- PANEL 2: Grouped Bars -->
<rect x="250" y="56" width="200" height="310" fill="#F5EFE8" stroke="#D4D4D4" rx="0"/>

<!-- Y-axis -->
<line x1="280" y1="72" x2="280" y2="320" stroke="#2a1a0e" stroke-width="1"/>
<text x="274" y="78" font-size="7" fill="#545454" text-anchor="end">40</text>
<line x1="280" y1="74" x2="440" y2="74" stroke="#D4D4D4" stroke-dasharray="4 3"/>
<text x="274" y="140" font-size="7" fill="#545454" text-anchor="end">30</text>
<line x1="280" y1="136" x2="440" y2="136" stroke="#D4D4D4" stroke-dasharray="4 3"/>
<text x="274" y="200" font-size="7" fill="#545454" text-anchor="end">20</text>
<line x1="280" y1="197" x2="440" y2="197" stroke="#D4D4D4" stroke-dasharray="4 3"/>
<text x="274" y="262" font-size="7" fill="#545454" text-anchor="end">10</text>
<line x1="280" y1="259" x2="440" y2="259" stroke="#D4D4D4" stroke-dasharray="4 3"/>
<line x1="280" y1="320" x2="440" y2="320" stroke="#2a1a0e" stroke-width="1"/>

<!-- Grouped bars: 5 groups, 4 bars each, bar width=6, group gap=4 -->
<!-- 246px for 40 units => 6.15px/unit -->
<!-- Country A: 20,25,35,20 -->
<rect x="286" y="197" width="6" height="123" fill="#2a1a0e" rx="0"/>
<rect x="293" y="166.3" width="6" height="153.7" fill="#6B3520" rx="0"/>
<rect x="300" y="104.8" width="6" height="215.2" fill="#C8102E" rx="0"/>
<rect x="307" y="197" width="6" height="123" fill="#C8860E" rx="0"/>

<!-- Country B: 15,30,30,25 -->
<rect x="318" y="227.8" width="6" height="92.2" fill="#2a1a0e" rx="0"/>
<rect x="325" y="135.5" width="6" height="184.5" fill="#6B3520" rx="0"/>
<rect x="332" y="135.5" width="6" height="184.5" fill="#C8102E" rx="0"/>
<rect x="339" y="166.3" width="6" height="153.7" fill="#C8860E" rx="0"/>

<!-- Country C: 25,20,40,15 -->
<rect x="350" y="166.3" width="6" height="153.7" fill="#2a1a0e" rx="0"/>
<rect x="357" y="197" width="6" height="123" fill="#6B3520" rx="0"/>
<rect x="364" y="74" width="6" height="246" fill="#C8102E" rx="0"/>
<rect x="371" y="227.8" width="6" height="92.2" fill="#C8860E" rx="0"/>

<!-- Country D: 10,35,25,30 -->
<rect x="382" y="258.5" width="6" height="61.5" fill="#2a1a0e" rx="0"/>
<rect x="389" y="104.8" width="6" height="215.2" fill="#6B3520" rx="0"/>
<rect x="396" y="166.3" width="6" height="153.7" fill="#C8102E" rx="0"/>
<rect x="403" y="135.5" width="6" height="184.5" fill="#C8860E" rx="0"/>

<!-- Country E: 30,15,20,35 -->
<rect x="414" y="135.5" width="6" height="184.5" fill="#2a1a0e" rx="0"/>
<rect x="421" y="227.8" width="6" height="92.2" fill="#6B3520" rx="0"/>
<rect x="428" y="197" width="6" height="123" fill="#C8102E" rx="0"/>
<rect x="435" y="104.8" width="6" height="215.2" fill="#C8860E" rx="0"/>

<!-- Country labels -->
<text x="299" y="334" text-anchor="middle" font-size="8" fill="#545454">A</text>
<text x="331" y="334" text-anchor="middle" font-size="8" fill="#545454">B</text>
<text x="363" y="334" text-anchor="middle" font-size="8" fill="#545454">C</text>
<text x="395" y="334" text-anchor="middle" font-size="8" fill="#545454">D</text>
<text x="427" y="334" text-anchor="middle" font-size="8" fill="#545454">E</text>

<text x="350" y="354" text-anchor="middle" font-family="'IBM Plex Mono', 'Courier New', monospace" font-size="8" fill="#545454" letter-spacing="0.08em">COMPARE WITHIN COUNTRY?</text>

<!-- PANEL 3: Small Multiples -->
<rect x="468" y="56" width="200" height="310" fill="#F5EFE8" stroke="#D4D4D4" rx="0"/>

<!-- 4 mini charts in 2x2 grid -->
<!-- Each mini chart: 82x125 -->
<!-- Top-left: Agriculture -->
<text x="518" y="72" text-anchor="middle" font-size="8" fill="#545454" font-weight="bold">Agriculture</text>
<line x1="480" y1="78" x2="556" y2="78" stroke="#D4D4D4" stroke-dasharray="4 3"/>
<line x1="480" y1="138" x2="556" y2="138" stroke="#2a1a0e" stroke-width="0.5"/>
<!-- bars: max 40, 60px range, 1.5px/unit -->
<!-- A=20 B=15 C=25 D=10 E=30 -->
<rect x="484" y="108" width="10" height="30" fill="#6B3520" rx="0"/>
<rect x="498" y="115.5" width="10" height="22.5" fill="#6B3520" rx="0"/>
<rect x="512" y="100.5" width="10" height="37.5" fill="#6B3520" rx="0"/>
<rect x="526" y="123" width="10" height="15" fill="#6B3520" rx="0"/>
<rect x="540" y="93" width="10" height="45" fill="#6B3520" rx="0"/>

<!-- Top-right: Industry -->
<text x="618" y="72" text-anchor="middle" font-size="8" fill="#545454" font-weight="bold">Industry</text>
<line x1="580" y1="78" x2="656" y2="78" stroke="#D4D4D4" stroke-dasharray="4 3"/>
<line x1="580" y1="138" x2="656" y2="138" stroke="#2a1a0e" stroke-width="0.5"/>
<!-- A=25 B=30 C=20 D=35 E=15 -->
<rect x="584" y="100.5" width="10" height="37.5" fill="#6B3520" rx="0"/>
<rect x="598" y="93" width="10" height="45" fill="#6B3520" rx="0"/>
<rect x="612" y="108" width="10" height="30" fill="#6B3520" rx="0"/>
<rect x="626" y="85.5" width="10" height="52.5" fill="#6B3520" rx="0"/>
<rect x="640" y="115.5" width="10" height="22.5" fill="#6B3520" rx="0"/>

<!-- Bottom-left: Services -->
<text x="518" y="162" text-anchor="middle" font-size="8" fill="#545454" font-weight="bold">Services</text>
<line x1="480" y1="168" x2="556" y2="168" stroke="#D4D4D4" stroke-dasharray="4 3"/>
<line x1="480" y1="228" x2="556" y2="228" stroke="#2a1a0e" stroke-width="0.5"/>
<!-- A=35 B=30 C=40 D=25 E=20 -->
<rect x="484" y="175.5" width="10" height="52.5" fill="#6B3520" rx="0"/>
<rect x="498" y="183" width="10" height="45" fill="#6B3520" rx="0"/>
<rect x="512" y="168" width="10" height="60" fill="#6B3520" rx="0"/>
<rect x="526" y="190.5" width="10" height="37.5" fill="#6B3520" rx="0"/>
<rect x="540" y="198" width="10" height="30" fill="#6B3520" rx="0"/>

<!-- Bottom-right: Tech -->
<text x="618" y="162" text-anchor="middle" font-size="8" fill="#545454" font-weight="bold">Tech</text>
<line x1="580" y1="168" x2="656" y2="168" stroke="#D4D4D4" stroke-dasharray="4 3"/>
<line x1="580" y1="228" x2="656" y2="228" stroke="#2a1a0e" stroke-width="0.5"/>
<!-- A=20 B=25 C=15 D=30 E=35 -->
<rect x="584" y="198" width="10" height="30" fill="#6B3520" rx="0"/>
<rect x="598" y="190.5" width="10" height="37.5" fill="#6B3520" rx="0"/>
<rect x="612" y="205.5" width="10" height="22.5" fill="#6B3520" rx="0"/>
<rect x="626" y="183" width="10" height="45" fill="#6B3520" rx="0"/>
<rect x="640" y="175.5" width="10" height="52.5" fill="#6B3520" rx="0"/>

<!-- Mini chart country labels -->
<text x="489" y="242" font-size="6" fill="#545454" text-anchor="middle">A</text>
<text x="503" y="242" font-size="6" fill="#545454" text-anchor="middle">B</text>
<text x="517" y="242" font-size="6" fill="#545454" text-anchor="middle">C</text>
<text x="531" y="242" font-size="6" fill="#545454" text-anchor="middle">D</text>
<text x="545" y="242" font-size="6" fill="#545454" text-anchor="middle">E</text>

<text x="589" y="242" font-size="6" fill="#545454" text-anchor="middle">A</text>
<text x="603" y="242" font-size="6" fill="#545454" text-anchor="middle">B</text>
<text x="617" y="242" font-size="6" fill="#545454" text-anchor="middle">C</text>
<text x="631" y="242" font-size="6" fill="#545454" text-anchor="middle">D</text>
<text x="645" y="242" font-size="6" fill="#545454" text-anchor="middle">E</text>

<text x="568" y="354" text-anchor="middle" font-family="'IBM Plex Mono', 'Courier New', monospace" font-size="8" fill="#545454" letter-spacing="0.08em">COMPARE ACROSS SECTORS?</text>

<!-- Caption -->
<text x="350" y="408" text-anchor="middle" font-size="10" fill="#545454" font-style="italic">Fig. 7-5. Each layout answers a different question about multi-series data.</text>
</svg>