<svg xmlns="http://www.w3.org/2000/svg" viewBox="0 0 700 420">
  <defs>
    <style>
      @import url('https://fonts.googleapis.com/css2?family=EB+Garamond:ital,wght@0,400;0,600;1,400&amp;family=IBM+Plex+Mono:wght@400;500&amp;display=swap');
    </style>
  </defs>

  <!-- Background -->
  <rect x="0" y="0" width="700" height="420" fill="#FFFFFF"/>

  <!-- Title -->
  <text x="350" y="28" text-anchor="middle" font-family="'EB Garamond', Georgia, 'Times New Roman', serif" font-size="18" font-weight="600" fill="#2a1a0e">Library Density Across the US</text>

  <!-- Chart area -->
  <rect x="32" y="42" width="636" height="330" fill="#F5EFE8" stroke="#D4D4D4" stroke-width="0.75"/>

  <!-- Simplified US outline -->
  <path d="M 90,120 L 180,108 L 280,104 L 350,100 L 420,104 L 500,108 L 560,118 L 590,135 L 600,165 L 595,200 L 585,235 L 570,260 L 545,280 L 520,295 L 480,305 L 430,310 L 370,315 L 310,318 L 250,315 L 195,305 L 150,285 L 120,260 L 100,230 L 90,195 L 85,160 Z" fill="none" stroke="#D4D4D4" stroke-width="1"/>

  <!-- Dots: ~60 small dots representing library locations -->
  <!-- Northeast cluster (~20 dots packed closely) -->
  <circle cx="540" cy="135" r="2.5" fill="#6B3520"/>
  <circle cx="548" cy="130" r="2.5" fill="#6B3520"/>
  <circle cx="555" cy="138" r="2.5" fill="#6B3520"/>
  <circle cx="562" cy="132" r="2.5" fill="#6B3520"/>
  <circle cx="545" cy="143" r="2.5" fill="#6B3520"/>
  <circle cx="553" cy="148" r="2.5" fill="#6B3520"/>
  <circle cx="560" cy="142" r="2.5" fill="#6B3520"/>
  <circle cx="535" cy="148" r="2.5" fill="#6B3520"/>
  <circle cx="550" cy="155" r="2.5" fill="#6B3520"/>
  <circle cx="558" cy="150" r="2.5" fill="#6B3520"/>
  <circle cx="565" cy="148" r="2.5" fill="#6B3520"/>
  <circle cx="543" cy="158" r="2.5" fill="#6B3520"/>
  <circle cx="537" cy="153" r="2.5" fill="#6B3520"/>
  <circle cx="530" cy="140" r="2.5" fill="#6B3520"/>
  <circle cx="568" cy="125" r="2.5" fill="#6B3520"/>
  <circle cx="572" cy="140" r="2.5" fill="#6B3520"/>
  <circle cx="555" cy="160" r="2.5" fill="#6B3520"/>
  <circle cx="548" cy="165" r="2.5" fill="#6B3520"/>
  <circle cx="563" cy="155" r="2.5" fill="#6B3520"/>
  <circle cx="525" cy="145" r="2.5" fill="#6B3520"/>

  <!-- Great Lakes cluster (~15 dots) -->
  <circle cx="445" cy="140" r="2.5" fill="#6B3520"/>
  <circle cx="455" cy="135" r="2.5" fill="#6B3520"/>
  <circle cx="462" cy="143" r="2.5" fill="#6B3520"/>
  <circle cx="470" cy="138" r="2.5" fill="#6B3520"/>
  <circle cx="450" cy="148" r="2.5" fill="#6B3520"/>
  <circle cx="458" cy="155" r="2.5" fill="#6B3520"/>
  <circle cx="465" cy="150" r="2.5" fill="#6B3520"/>
  <circle cx="475" cy="148" r="2.5" fill="#6B3520"/>
  <circle cx="440" cy="152" r="2.5" fill="#6B3520"/>
  <circle cx="448" cy="160" r="2.5" fill="#6B3520"/>
  <circle cx="472" cy="155" r="2.5" fill="#6B3520"/>
  <circle cx="480" cy="143" r="2.5" fill="#6B3520"/>
  <circle cx="455" cy="165" r="2.5" fill="#6B3520"/>
  <circle cx="463" cy="168" r="2.5" fill="#6B3520"/>
  <circle cx="438" cy="145" r="2.5" fill="#6B3520"/>

  <!-- West coast (~10 dots spread out) -->
  <circle cx="110" cy="145" r="2.5" fill="#6B3520"/>
  <circle cx="105" cy="165" r="2.5" fill="#6B3520"/>
  <circle cx="115" cy="180" r="2.5" fill="#6B3520"/>
  <circle cx="108" cy="200" r="2.5" fill="#6B3520"/>
  <circle cx="120" cy="215" r="2.5" fill="#6B3520"/>
  <circle cx="125" cy="235" r="2.5" fill="#6B3520"/>
  <circle cx="130" cy="250" r="2.5" fill="#6B3520"/>
  <circle cx="118" cy="195" r="2.5" fill="#6B3520"/>
  <circle cx="112" cy="155" r="2.5" fill="#6B3520"/>
  <circle cx="128" cy="225" r="2.5" fill="#6B3520"/>

  <!-- Interior West (~5 dots spread very far apart) -->
  <circle cx="200" cy="160" r="2.5" fill="#6B3520"/>
  <circle cx="250" cy="190" r="2.5" fill="#6B3520"/>
  <circle cx="300" cy="150" r="2.5" fill="#6B3520"/>
  <circle cx="220" cy="220" r="2.5" fill="#6B3520"/>
  <circle cx="270" cy="240" r="2.5" fill="#6B3520"/>

  <!-- South (~10 dots moderate spacing) -->
  <circle cx="400" cy="250" r="2.5" fill="#6B3520"/>
  <circle cx="430" cy="270" r="2.5" fill="#6B3520"/>
  <circle cx="460" cy="260" r="2.5" fill="#6B3520"/>
  <circle cx="490" cy="250" r="2.5" fill="#6B3520"/>
  <circle cx="510" cy="240" r="2.5" fill="#6B3520"/>
  <circle cx="370" cy="270" r="2.5" fill="#6B3520"/>
  <circle cx="350" cy="260" r="2.5" fill="#6B3520"/>
  <circle cx="420" cy="290" r="2.5" fill="#6B3520"/>
  <circle cx="480" cy="280" r="2.5" fill="#6B3520"/>
  <circle cx="530" cy="260" r="2.5" fill="#6B3520"/>

  <!-- Legend -->
  <circle cx="55" cy="350" r="2.5" fill="#6B3520"/>
  <text x="64" y="354" font-family="'EB Garamond', Georgia, 'Times New Roman', serif" font-size="10" fill="#545454">= 1 library</text>

  <!-- Caption -->
  <text x="350" y="400" text-anchor="middle" font-family="'EB Garamond', Georgia, 'Times New Roman', serif" font-size="11" font-style="italic" fill="#545454">Each dot is one library. Clustering reveals spatial pattern.</text>
</svg>
