<svg xmlns="http://www.w3.org/2000/svg" viewBox="0 0 700 420">
  <defs>
    <style>
      @import url('https://fonts.googleapis.com/css2?family=EB+Garamond:ital,wght@0,400;0,600;1,400&amp;family=IBM+Plex+Mono:wght@400;500&amp;display=swap');
    </style>
  </defs>

  <!-- Background -->
  <rect x="0" y="0" width="700" height="420" fill="#FFFFFF"/>

  <!-- Title -->
  <text x="350" y="28" text-anchor="middle" font-family="'EB Garamond', Georgia, 'Times New Roman', serif" font-size="18" font-weight="600" fill="#2a1a0e">100 People — Who Has Access to Clean Energy?</text>

  <!-- Chart area -->
  <rect x="32" y="42" width="636" height="330" fill="#F5EFE8" stroke="#D4D4D4" stroke-width="0.75"/>

  <!-- 10x10 grid of 100 dots, centered in chart area -->
  <!-- Grid: 10 cols x 10 rows, dot r=8, spacing=24px between centers -->
  <!-- Grid width: 9*24 = 216, grid height: 9*24 = 216 -->
  <!-- Center at (350, 190), so start x = 350 - 108 = 242, start y = 190 - 108 = 82 -->
  <!-- Actually let's center better: startX=242, startY=82 -->
  <!-- First 73 dots = #6B3520 (access), last 27 = #D4D4D4 (no access) -->

  <!-- Row 1 (dots 1-10): all filled -->
  <circle cx="242" cy="82" r="8" fill="#6B3520"/>
  <circle cx="266" cy="82" r="8" fill="#6B3520"/>
  <circle cx="290" cy="82" r="8" fill="#6B3520"/>
  <circle cx="314" cy="82" r="8" fill="#6B3520"/>
  <circle cx="338" cy="82" r="8" fill="#6B3520"/>
  <circle cx="362" cy="82" r="8" fill="#6B3520"/>
  <circle cx="386" cy="82" r="8" fill="#6B3520"/>
  <circle cx="410" cy="82" r="8" fill="#6B3520"/>
  <circle cx="434" cy="82" r="8" fill="#6B3520"/>
  <circle cx="458" cy="82" r="8" fill="#6B3520"/>

  <!-- Row 2 (dots 11-20): all filled -->
  <circle cx="242" cy="106" r="8" fill="#6B3520"/>
  <circle cx="266" cy="106" r="8" fill="#6B3520"/>
  <circle cx="290" cy="106" r="8" fill="#6B3520"/>
  <circle cx="314" cy="106" r="8" fill="#6B3520"/>
  <circle cx="338" cy="106" r="8" fill="#6B3520"/>
  <circle cx="362" cy="106" r="8" fill="#6B3520"/>
  <circle cx="386" cy="106" r="8" fill="#6B3520"/>
  <circle cx="410" cy="106" r="8" fill="#6B3520"/>
  <circle cx="434" cy="106" r="8" fill="#6B3520"/>
  <circle cx="458" cy="106" r="8" fill="#6B3520"/>

  <!-- Row 3 (dots 21-30): all filled -->
  <circle cx="242" cy="130" r="8" fill="#6B3520"/>
  <circle cx="266" cy="130" r="8" fill="#6B3520"/>
  <circle cx="290" cy="130" r="8" fill="#6B3520"/>
  <circle cx="314" cy="130" r="8" fill="#6B3520"/>
  <circle cx="338" cy="130" r="8" fill="#6B3520"/>
  <circle cx="362" cy="130" r="8" fill="#6B3520"/>
  <circle cx="386" cy="130" r="8" fill="#6B3520"/>
  <circle cx="410" cy="130" r="8" fill="#6B3520"/>
  <circle cx="434" cy="130" r="8" fill="#6B3520"/>
  <circle cx="458" cy="130" r="8" fill="#6B3520"/>

  <!-- Row 4 (dots 31-40): all filled -->
  <circle cx="242" cy="154" r="8" fill="#6B3520"/>
  <circle cx="266" cy="154" r="8" fill="#6B3520"/>
  <circle cx="290" cy="154" r="8" fill="#6B3520"/>
  <circle cx="314" cy="154" r="8" fill="#6B3520"/>
  <circle cx="338" cy="154" r="8" fill="#6B3520"/>
  <circle cx="362" cy="154" r="8" fill="#6B3520"/>
  <circle cx="386" cy="154" r="8" fill="#6B3520"/>
  <circle cx="410" cy="154" r="8" fill="#6B3520"/>
  <circle cx="434" cy="154" r="8" fill="#6B3520"/>
  <circle cx="458" cy="154" r="8" fill="#6B3520"/>

  <!-- Row 5 (dots 41-50): all filled -->
  <circle cx="242" cy="178" r="8" fill="#6B3520"/>
  <circle cx="266" cy="178" r="8" fill="#6B3520"/>
  <circle cx="290" cy="178" r="8" fill="#6B3520"/>
  <circle cx="314" cy="178" r="8" fill="#6B3520"/>
  <circle cx="338" cy="178" r="8" fill="#6B3520"/>
  <circle cx="362" cy="178" r="8" fill="#6B3520"/>
  <circle cx="386" cy="178" r="8" fill="#6B3520"/>
  <circle cx="410" cy="178" r="8" fill="#6B3520"/>
  <circle cx="434" cy="178" r="8" fill="#6B3520"/>
  <circle cx="458" cy="178" r="8" fill="#6B3520"/>

  <!-- Row 6 (dots 51-60): all filled -->
  <circle cx="242" cy="202" r="8" fill="#6B3520"/>
  <circle cx="266" cy="202" r="8" fill="#6B3520"/>
  <circle cx="290" cy="202" r="8" fill="#6B3520"/>
  <circle cx="314" cy="202" r="8" fill="#6B3520"/>
  <circle cx="338" cy="202" r="8" fill="#6B3520"/>
  <circle cx="362" cy="202" r="8" fill="#6B3520"/>
  <circle cx="386" cy="202" r="8" fill="#6B3520"/>
  <circle cx="410" cy="202" r="8" fill="#6B3520"/>
  <circle cx="434" cy="202" r="8" fill="#6B3520"/>
  <circle cx="458" cy="202" r="8" fill="#6B3520"/>

  <!-- Row 7 (dots 61-70): all filled -->
  <circle cx="242" cy="226" r="8" fill="#6B3520"/>
  <circle cx="266" cy="226" r="8" fill="#6B3520"/>
  <circle cx="290" cy="226" r="8" fill="#6B3520"/>
  <circle cx="314" cy="226" r="8" fill="#6B3520"/>
  <circle cx="338" cy="226" r="8" fill="#6B3520"/>
  <circle cx="362" cy="226" r="8" fill="#6B3520"/>
  <circle cx="386" cy="226" r="8" fill="#6B3520"/>
  <circle cx="410" cy="226" r="8" fill="#6B3520"/>
  <circle cx="434" cy="226" r="8" fill="#6B3520"/>
  <circle cx="458" cy="226" r="8" fill="#6B3520"/>

  <!-- Row 8 (dots 71-80): first 3 filled, last 7 empty -->
  <circle cx="242" cy="250" r="8" fill="#6B3520"/>
  <circle cx="266" cy="250" r="8" fill="#6B3520"/>
  <circle cx="290" cy="250" r="8" fill="#6B3520"/>
  <circle cx="314" cy="250" r="8" fill="#D4D4D4"/>
  <circle cx="338" cy="250" r="8" fill="#D4D4D4"/>
  <circle cx="362" cy="250" r="8" fill="#D4D4D4"/>
  <circle cx="386" cy="250" r="8" fill="#D4D4D4"/>
  <circle cx="410" cy="250" r="8" fill="#D4D4D4"/>
  <circle cx="434" cy="250" r="8" fill="#D4D4D4"/>
  <circle cx="458" cy="250" r="8" fill="#D4D4D4"/>

  <!-- Row 9 (dots 81-90): all empty -->
  <circle cx="242" cy="274" r="8" fill="#D4D4D4"/>
  <circle cx="266" cy="274" r="8" fill="#D4D4D4"/>
  <circle cx="290" cy="274" r="8" fill="#D4D4D4"/>
  <circle cx="314" cy="274" r="8" fill="#D4D4D4"/>
  <circle cx="338" cy="274" r="8" fill="#D4D4D4"/>
  <circle cx="362" cy="274" r="8" fill="#D4D4D4"/>
  <circle cx="386" cy="274" r="8" fill="#D4D4D4"/>
  <circle cx="410" cy="274" r="8" fill="#D4D4D4"/>
  <circle cx="434" cy="274" r="8" fill="#D4D4D4"/>
  <circle cx="458" cy="274" r="8" fill="#D4D4D4"/>

  <!-- Row 10 (dots 91-100): all empty -->
  <circle cx="242" cy="298" r="8" fill="#D4D4D4"/>
  <circle cx="266" cy="298" r="8" fill="#D4D4D4"/>
  <circle cx="290" cy="298" r="8" fill="#D4D4D4"/>
  <circle cx="314" cy="298" r="8" fill="#D4D4D4"/>
  <circle cx="338" cy="298" r="8" fill="#D4D4D4"/>
  <circle cx="362" cy="298" r="8" fill="#D4D4D4"/>
  <circle cx="386" cy="298" r="8" fill="#D4D4D4"/>
  <circle cx="410" cy="298" r="8" fill="#D4D4D4"/>
  <circle cx="434" cy="298" r="8" fill="#D4D4D4"/>
  <circle cx="458" cy="298" r="8" fill="#D4D4D4"/>

  <!-- Summary text below grid -->
  <text x="350" y="332" text-anchor="middle" font-family="'EB Garamond', Georgia, 'Times New Roman', serif" font-size="16" font-weight="600" fill="#2a1a0e">73 out of 100</text>
  <text x="350" y="348" text-anchor="middle" font-family="'EB Garamond', Georgia, 'Times New Roman', serif" font-size="13" fill="#545454">have access to clean energy</text>

  <!-- Legend -->
  <circle cx="530" cy="82" r="6" fill="#6B3520"/>
  <text x="542" y="86" font-family="'EB Garamond', Georgia, 'Times New Roman', serif" font-size="10" fill="#2a1a0e">Access</text>
  <circle cx="530" cy="100" r="6" fill="#D4D4D4"/>
  <text x="542" y="104" font-family="'EB Garamond', Georgia, 'Times New Roman', serif" font-size="10" fill="#2a1a0e">No access</text>

  <!-- Caption -->
  <text x="350" y="400" text-anchor="middle" font-family="'EB Garamond', Georgia, 'Times New Roman', serif" font-size="11" font-style="italic" fill="#545454">Each dot is one person. Proportion is immediate.</text>
</svg>
