<svg viewBox="0 0 700 420" xmlns="http://www.w3.org/2000/svg" font-family="'EB Garamond', Georgia, 'Times New Roman', serif">

<!-- Background -->
<rect x="0" y="0" width="700" height="420" fill="#FFFFFF"/>

<!-- Title -->
<text x="350" y="28" text-anchor="middle" font-size="16" font-weight="bold" fill="#2a1a0e">AI Incident Types — Tally</text>

<!-- Subtitle -->
<text x="350" y="46" text-anchor="middle" font-family="'IBM Plex Mono', 'Courier New', monospace" font-size="10" fill="#545454" letter-spacing="0.08em">TALLY CHART</text>

<!-- Chart area -->
<rect x="32" y="60" width="636" height="310" fill="#F5EFE8" stroke="#D4D4D4" stroke-width="0.75"/>

<!-- Row layout: 5 categories, each ~56px tall, starting at y=80 -->
<!-- Category labels on left, tally marks in center, totals on right -->

<!-- Header row -->
<text x="150" y="80" text-anchor="end" font-family="'IBM Plex Mono', 'Courier New', monospace" font-size="9" fill="#545454" letter-spacing="0.08em">CATEGORY</text>
<text x="400" y="80" text-anchor="middle" font-family="'IBM Plex Mono', 'Courier New', monospace" font-size="9" fill="#545454" letter-spacing="0.08em">TALLY</text>
<text x="630" y="80" text-anchor="end" font-family="'IBM Plex Mono', 'Courier New', monospace" font-size="9" fill="#545454" letter-spacing="0.08em">TOTAL</text>
<line x1="50" y1="88" x2="658" y2="88" stroke="#D4D4D4" stroke-width="0.75"/>

<!-- Row 1: Accuracy Failures = 31 (6 groups of 5 + 1) -->
<text x="150" y="118" text-anchor="end" font-size="13" fill="#2a1a0e">Accuracy Failures</text>
<!-- Group 1 -->
<line x1="180" y1="100" x2="180" y2="128" stroke="#6B3520" stroke-width="2"/>
<line x1="190" y1="100" x2="190" y2="128" stroke="#6B3520" stroke-width="2"/>
<line x1="200" y1="100" x2="200" y2="128" stroke="#6B3520" stroke-width="2"/>
<line x1="210" y1="100" x2="210" y2="128" stroke="#6B3520" stroke-width="2"/>
<line x1="174" y1="122" x2="216" y2="104" stroke="#6B3520" stroke-width="2"/>
<!-- Group 2 -->
<line x1="230" y1="100" x2="230" y2="128" stroke="#6B3520" stroke-width="2"/>
<line x1="240" y1="100" x2="240" y2="128" stroke="#6B3520" stroke-width="2"/>
<line x1="250" y1="100" x2="250" y2="128" stroke="#6B3520" stroke-width="2"/>
<line x1="260" y1="100" x2="260" y2="128" stroke="#6B3520" stroke-width="2"/>
<line x1="224" y1="122" x2="266" y2="104" stroke="#6B3520" stroke-width="2"/>
<!-- Group 3 -->
<line x1="280" y1="100" x2="280" y2="128" stroke="#6B3520" stroke-width="2"/>
<line x1="290" y1="100" x2="290" y2="128" stroke="#6B3520" stroke-width="2"/>
<line x1="300" y1="100" x2="300" y2="128" stroke="#6B3520" stroke-width="2"/>
<line x1="310" y1="100" x2="310" y2="128" stroke="#6B3520" stroke-width="2"/>
<line x1="274" y1="122" x2="316" y2="104" stroke="#6B3520" stroke-width="2"/>
<!-- Group 4 -->
<line x1="330" y1="100" x2="330" y2="128" stroke="#6B3520" stroke-width="2"/>
<line x1="340" y1="100" x2="340" y2="128" stroke="#6B3520" stroke-width="2"/>
<line x1="350" y1="100" x2="350" y2="128" stroke="#6B3520" stroke-width="2"/>
<line x1="360" y1="100" x2="360" y2="128" stroke="#6B3520" stroke-width="2"/>
<line x1="324" y1="122" x2="366" y2="104" stroke="#6B3520" stroke-width="2"/>
<!-- Group 5 -->
<line x1="380" y1="100" x2="380" y2="128" stroke="#6B3520" stroke-width="2"/>
<line x1="390" y1="100" x2="390" y2="128" stroke="#6B3520" stroke-width="2"/>
<line x1="400" y1="100" x2="400" y2="128" stroke="#6B3520" stroke-width="2"/>
<line x1="410" y1="100" x2="410" y2="128" stroke="#6B3520" stroke-width="2"/>
<line x1="374" y1="122" x2="416" y2="104" stroke="#6B3520" stroke-width="2"/>
<!-- Group 6 -->
<line x1="430" y1="100" x2="430" y2="128" stroke="#6B3520" stroke-width="2"/>
<line x1="440" y1="100" x2="440" y2="128" stroke="#6B3520" stroke-width="2"/>
<line x1="450" y1="100" x2="450" y2="128" stroke="#6B3520" stroke-width="2"/>
<line x1="460" y1="100" x2="460" y2="128" stroke="#6B3520" stroke-width="2"/>
<line x1="424" y1="122" x2="466" y2="104" stroke="#6B3520" stroke-width="2"/>
<!-- +1 single mark -->
<line x1="480" y1="100" x2="480" y2="128" stroke="#6B3520" stroke-width="2"/>
<text x="630" y="118" text-anchor="end" font-size="14" font-weight="bold" fill="#2a1a0e">31</text>
<line x1="50" y1="138" x2="658" y2="138" stroke="#D4D4D4" stroke-width="0.3"/>

<!-- Row 2: Bias Detected = 18 (3 groups of 5 + 3) -->
<text x="150" y="168" text-anchor="end" font-size="13" fill="#2a1a0e">Bias Detected</text>
<!-- Group 1 -->
<line x1="180" y1="150" x2="180" y2="178" stroke="#6B3520" stroke-width="2"/>
<line x1="190" y1="150" x2="190" y2="178" stroke="#6B3520" stroke-width="2"/>
<line x1="200" y1="150" x2="200" y2="178" stroke="#6B3520" stroke-width="2"/>
<line x1="210" y1="150" x2="210" y2="178" stroke="#6B3520" stroke-width="2"/>
<line x1="174" y1="172" x2="216" y2="154" stroke="#6B3520" stroke-width="2"/>
<!-- Group 2 -->
<line x1="230" y1="150" x2="230" y2="178" stroke="#6B3520" stroke-width="2"/>
<line x1="240" y1="150" x2="240" y2="178" stroke="#6B3520" stroke-width="2"/>
<line x1="250" y1="150" x2="250" y2="178" stroke="#6B3520" stroke-width="2"/>
<line x1="260" y1="150" x2="260" y2="178" stroke="#6B3520" stroke-width="2"/>
<line x1="224" y1="172" x2="266" y2="154" stroke="#6B3520" stroke-width="2"/>
<!-- Group 3 -->
<line x1="280" y1="150" x2="280" y2="178" stroke="#6B3520" stroke-width="2"/>
<line x1="290" y1="150" x2="290" y2="178" stroke="#6B3520" stroke-width="2"/>
<line x1="300" y1="150" x2="300" y2="178" stroke="#6B3520" stroke-width="2"/>
<line x1="310" y1="150" x2="310" y2="178" stroke="#6B3520" stroke-width="2"/>
<line x1="274" y1="172" x2="316" y2="154" stroke="#6B3520" stroke-width="2"/>
<!-- +3 single marks -->
<line x1="330" y1="150" x2="330" y2="178" stroke="#6B3520" stroke-width="2"/>
<line x1="340" y1="150" x2="340" y2="178" stroke="#6B3520" stroke-width="2"/>
<line x1="350" y1="150" x2="350" y2="178" stroke="#6B3520" stroke-width="2"/>
<text x="630" y="168" text-anchor="end" font-size="14" font-weight="bold" fill="#2a1a0e">18</text>
<line x1="50" y1="188" x2="658" y2="188" stroke="#D4D4D4" stroke-width="0.3"/>

<!-- Row 3: System Downtime = 15 (3 groups of 5) -->
<text x="150" y="218" text-anchor="end" font-size="13" fill="#2a1a0e">System Downtime</text>
<!-- Group 1 -->
<line x1="180" y1="200" x2="180" y2="228" stroke="#6B3520" stroke-width="2"/>
<line x1="190" y1="200" x2="190" y2="228" stroke="#6B3520" stroke-width="2"/>
<line x1="200" y1="200" x2="200" y2="228" stroke="#6B3520" stroke-width="2"/>
<line x1="210" y1="200" x2="210" y2="228" stroke="#6B3520" stroke-width="2"/>
<line x1="174" y1="222" x2="216" y2="204" stroke="#6B3520" stroke-width="2"/>
<!-- Group 2 -->
<line x1="230" y1="200" x2="230" y2="228" stroke="#6B3520" stroke-width="2"/>
<line x1="240" y1="200" x2="240" y2="228" stroke="#6B3520" stroke-width="2"/>
<line x1="250" y1="200" x2="250" y2="228" stroke="#6B3520" stroke-width="2"/>
<line x1="260" y1="200" x2="260" y2="228" stroke="#6B3520" stroke-width="2"/>
<line x1="224" y1="222" x2="266" y2="204" stroke="#6B3520" stroke-width="2"/>
<!-- Group 3 -->
<line x1="280" y1="200" x2="280" y2="228" stroke="#6B3520" stroke-width="2"/>
<line x1="290" y1="200" x2="290" y2="228" stroke="#6B3520" stroke-width="2"/>
<line x1="300" y1="200" x2="300" y2="228" stroke="#6B3520" stroke-width="2"/>
<line x1="310" y1="200" x2="310" y2="228" stroke="#6B3520" stroke-width="2"/>
<line x1="274" y1="222" x2="316" y2="204" stroke="#6B3520" stroke-width="2"/>
<text x="630" y="218" text-anchor="end" font-size="14" font-weight="bold" fill="#2a1a0e">15</text>
<line x1="50" y1="238" x2="658" y2="238" stroke="#D4D4D4" stroke-width="0.3"/>

<!-- Row 4: Privacy Violations = 12 (2 groups of 5 + 2) -->
<text x="150" y="268" text-anchor="end" font-size="13" fill="#2a1a0e">Privacy Violations</text>
<!-- Group 1 -->
<line x1="180" y1="250" x2="180" y2="278" stroke="#6B3520" stroke-width="2"/>
<line x1="190" y1="250" x2="190" y2="278" stroke="#6B3520" stroke-width="2"/>
<line x1="200" y1="250" x2="200" y2="278" stroke="#6B3520" stroke-width="2"/>
<line x1="210" y1="250" x2="210" y2="278" stroke="#6B3520" stroke-width="2"/>
<line x1="174" y1="272" x2="216" y2="254" stroke="#6B3520" stroke-width="2"/>
<!-- Group 2 -->
<line x1="230" y1="250" x2="230" y2="278" stroke="#6B3520" stroke-width="2"/>
<line x1="240" y1="250" x2="240" y2="278" stroke="#6B3520" stroke-width="2"/>
<line x1="250" y1="250" x2="250" y2="278" stroke="#6B3520" stroke-width="2"/>
<line x1="260" y1="250" x2="260" y2="278" stroke="#6B3520" stroke-width="2"/>
<line x1="224" y1="272" x2="266" y2="254" stroke="#6B3520" stroke-width="2"/>
<!-- +2 single marks -->
<line x1="280" y1="250" x2="280" y2="278" stroke="#6B3520" stroke-width="2"/>
<line x1="290" y1="250" x2="290" y2="278" stroke="#6B3520" stroke-width="2"/>
<text x="630" y="268" text-anchor="end" font-size="14" font-weight="bold" fill="#2a1a0e">12</text>
<line x1="50" y1="288" x2="658" y2="288" stroke="#D4D4D4" stroke-width="0.3"/>

<!-- Row 5: Safety Incidents = 8 (1 group of 5 + 3) -->
<text x="150" y="318" text-anchor="end" font-size="13" fill="#2a1a0e">Safety Incidents</text>
<!-- Group 1 -->
<line x1="180" y1="300" x2="180" y2="328" stroke="#6B3520" stroke-width="2"/>
<line x1="190" y1="300" x2="190" y2="328" stroke="#6B3520" stroke-width="2"/>
<line x1="200" y1="300" x2="200" y2="328" stroke="#6B3520" stroke-width="2"/>
<line x1="210" y1="300" x2="210" y2="328" stroke="#6B3520" stroke-width="2"/>
<line x1="174" y1="322" x2="216" y2="304" stroke="#6B3520" stroke-width="2"/>
<!-- +3 single marks -->
<line x1="230" y1="300" x2="230" y2="328" stroke="#6B3520" stroke-width="2"/>
<line x1="240" y1="300" x2="240" y2="328" stroke="#6B3520" stroke-width="2"/>
<line x1="250" y1="300" x2="250" y2="328" stroke="#6B3520" stroke-width="2"/>
<text x="630" y="318" text-anchor="end" font-size="14" font-weight="bold" fill="#2a1a0e">8</text>
<line x1="50" y1="338" x2="658" y2="338" stroke="#D4D4D4" stroke-width="0.3"/>

<!-- Caption -->
<text x="350" y="400" text-anchor="middle" font-size="11" font-style="italic" fill="#545454">Accuracy failures lead at 31 — each mark is one reported incident.</text>

</svg>
